<svg xmlns="http://www.w3.org/2000/svg" width="1120" height="620" viewBox="0 0 1120 620" role="img" aria-labelledby="title desc">
<title id="title">尧光山 · 穴居与冬蛰</title><desc id="desc">穴居主体为猾褢；穴的天然或人工成因、形状与内部布局均未交代。</desc>
<defs><marker id="arrow" viewBox="0 0 10 10" refX="9" refY="5" markerWidth="7" markerHeight="7" orient="auto-start-reverse"><path d="M0,0 L10,5 L0,10Z" fill="#497e8a"/></marker></defs>
<rect width="1120" height="620" fill="#f4f0e5"/>
<g font-family="Microsoft YaHei, Noto Sans CJK SC, sans-serif">
<text x="44" y="52" font-size="30" fill="#253e3a" font-weight="700" text-anchor="start">尧光山 · 穴居与冬蛰</text>
<text x="44" y="85" font-size="17" fill="#626e63" font-weight="400" text-anchor="start">穴居主体为猾褢；穴的天然或人工成因、形状与内部布局均未交代。</text>
<path d="M58,474 L166,282 Q260,127 434,260 L591,474Z" fill="#b9bdab" stroke="#7b8a73" stroke-width="3"/><path d="M223,474 V348 Q308,222 399,349 V474Z" fill="#505d55"/><text x="258" y="391" font-size="30" fill="#f3f0e7" font-weight="700" text-anchor="start">穴居</text><text x="102" y="505" font-size="22" fill="#253e3a" font-weight="400" text-anchor="start">洞形仅为占位示意</text><rect x="631" y="125" width="445" height="188" rx="14" fill="#fffdf7" stroke="#c7d1c4" stroke-width="2"/><text x="659" y="170" font-size="25" fill="#253e3a" font-weight="700" text-anchor="start">穴的居住者：猾褢</text><text x="659" y="218" font-size="24" fill="#253e3a" font-weight="400" text-anchor="start">状如人而彘鬣</text><text x="659" y="270" font-size="22" fill="#253e3a" font-weight="400" text-anchor="start">‘状如人’仍是兽类描述</text><rect x="631" y="335" width="445" height="180" rx="14" fill="#fffdf7" stroke="#c7d1c4" stroke-width="2"/><text x="659" y="381" font-size="27" fill="#253e3a" font-weight="700" text-anchor="start">冬蛰</text><text x="659" y="429" font-size="22" fill="#253e3a" font-weight="400" text-anchor="start">冬季蛰伏，不补写室内生活</text><text x="659" y="476" font-size="22" fill="#253e3a" font-weight="400" text-anchor="start">音如斫木 ≠ 会伐木造屋</text><path d="M414,373 L628,225" stroke="#497e8a" stroke-width="4" fill="none" stroke-dasharray="9 7"/>
<path d="M44,557 H1076" stroke="#d1cfbd"/>
<text x="44" y="590" font-size="18" fill="#626e63" font-weight="400" text-anchor="start">原文要素示意 · 本次绘制 · 无比例尺 · 图形、摆位与尺寸不构成原著记载</text>
</g></svg>