<svg xmlns="http://www.w3.org/2000/svg" width="1120" height="620" viewBox="0 0 1120 620" role="img" aria-labelledby="title desc">
<title id="title">招摇山 · 山、海、草木与金玉</title><desc id="desc">临西海与同山要素的关系；图中摆位不表示原文规定的植被分带。</desc>
<defs><marker id="arrow" viewBox="0 0 10 10" refX="9" refY="5" markerWidth="7" markerHeight="7" orient="auto-start-reverse"><path d="M0,0 L10,5 L0,10Z" fill="#497e8a"/></marker></defs>
<rect width="1120" height="620" fill="#f4f0e5"/>
<g font-family="Microsoft YaHei, Noto Sans CJK SC, sans-serif">
<text x="44" y="52" font-size="30" fill="#253e3a" font-weight="700" text-anchor="start">招摇山 · 山、海、草木与金玉</text>
<text x="44" y="85" font-size="17" fill="#626e63" font-weight="400" text-anchor="start">临西海与同山要素的关系；图中摆位不表示原文规定的植被分带。</text>
<path d="M40,490 L210,210 L315,330 L440,175 L650,490Z" fill="#bec9b3" stroke="#78917c" stroke-width="3"/><path d="M40,493 H730 V535 H40Z" fill="#c1b18c"/><path d="M735,280 Q795,260 855,280 T1076,280 V535 H735Z" fill="#a8c9cc"/><text x="852" y="388" font-size="30" fill="#335f6b" font-weight="400" text-anchor="start">西海</text><text x="766" y="450" font-size="21" fill="#253e3a" font-weight="400" text-anchor="start">临海关系</text><g transform="translate(206 308) scale(0.64)"><path d="M0,10 V100" stroke="#67533c" stroke-width="13"/><path d="M0,-60 C-75,-44 -85,5 -48,22 C-81,70 -6,79 3,50 C66,74 99,22 48,0 C65,-44 20,-73 0,-60Z" fill="#668477"/></g><g transform="translate(447 293) scale(0.75)"><path d="M0,10 V100" stroke="#67533c" stroke-width="13"/><path d="M0,-60 C-75,-44 -85,5 -48,22 C-81,70 -6,79 3,50 C66,74 99,22 48,0 C65,-44 20,-73 0,-60Z" fill="#668477"/></g><text x="142" y="219" font-size="23" fill="#253e3a" font-weight="700" text-anchor="start">桂</text><text x="424" y="192" font-size="23" fill="#253e3a" font-weight="700" text-anchor="start">迷榖</text><rect x="510" y="112" width="288" height="100" rx="14" fill="#fffdf7" stroke="#c7d1c4" stroke-width="2"/><text x="532" y="146" font-size="21" fill="#253e3a" font-weight="400" text-anchor="start">如榖 · 黑理 · 花四照</text><text x="532" y="184" font-size="22" fill="#253e3a" font-weight="400" text-anchor="start">佩之不迷</text><path d="M525,215 L482,250" stroke="#497e8a" stroke-width="4" fill="none" stroke-dasharray="9 7"/><path d="M335,477 Q310,437 311,409 M335,477 Q333,425 344,399 M335,477 Q366,424 380,428" stroke="#5c8176" stroke-width="6" fill="none"/><circle cx="311" cy="409" r="8" fill="#678f8d"/><circle cx="344" cy="399" r="8" fill="#678f8d"/><text x="350" y="351" font-size="23" fill="#253e3a" font-weight="700" text-anchor="start">祝余</text><text x="445" y="418" font-size="22" fill="#253e3a" font-weight="400" text-anchor="start">如韭 · 青花</text><text x="445" y="454" font-size="22" fill="#253e3a" font-weight="400" text-anchor="start">食之不饥</text><path d="M80,493 L100,451 L139,473 L147,493Z" fill="#bf9a54"/><text x="75" y="531" font-size="20" fill="#253e3a" font-weight="400" text-anchor="start">多金玉</text><rect x="816" y="125" width="260" height="98" rx="14" fill="#fffdf7" stroke="#c7d1c4" stroke-width="2"/><text x="837" y="163" font-size="22" fill="#253e3a" font-weight="400" text-anchor="start">同山还有狌狌</text><text x="837" y="198" font-size="20" fill="#253e3a" font-weight="400" text-anchor="start">未记其具体食性</text>
<path d="M44,557 H1076" stroke="#d1cfbd"/>
<text x="44" y="590" font-size="18" fill="#626e63" font-weight="400" text-anchor="start">原文要素示意 · 本次绘制 · 无比例尺 · 图形、摆位与尺寸不构成原著记载</text>
</g></svg>